<svg width="96" height="96" viewBox="0 0 96 96" fill="none" xmlns="http://www.w3.org/2000/svg">
<rect x="1" y="1" width="94" height="94" rx="47" fill="white"/>
<rect x="1" y="1" width="94" height="94" rx="47" stroke="black" stroke-width="2"/>
<path d="M68.6933 34.61V23.6534H20V72.3467H68.6933V65.04" stroke="black" stroke-width="3" stroke-linejoin="round"/>
<path d="M22.4333 30.9601H66.2533" stroke="black" stroke-width="3" stroke-linejoin="round"/>
<path d="M23.6499 27.3033H26.0832" stroke="black" stroke-width="3" stroke-linejoin="round"/>
<path d="M27.3066 27.3033H29.74" stroke="black" stroke-width="3" stroke-linejoin="round"/>
<path d="M30.9565 27.3033H33.3899" stroke="black" stroke-width="3" stroke-linejoin="round"/>
<path d="M73.5598 61.39H52.8632L47.9965 67.4733L43.1299 61.39H39.4799C38.1349 61.39 37.0466 60.3018 37.0466 58.9567V40.7001C37.0466 39.355 38.1349 38.2668 39.4799 38.2668H73.5666C74.9117 38.2668 75.9999 39.355 75.9999 40.7001V58.9567C75.9999 60.3018 74.9117 61.39 73.5666 61.39H73.5598Z" stroke="black" stroke-width="3" stroke-linejoin="round"/>
<path d="M45.5635 51.65H58.9535" stroke="black" stroke-width="3" stroke-linejoin="round"/>
<path d="M45.5635 46.7834H67.4768" stroke="black" stroke-width="3" stroke-linejoin="round"/>
</svg>
